<svg width="30" height="30" viewBox="0 0 30 30" fill="none" xmlns="http://www.w3.org/2000/svg">
<path d="M10.0001 7.5L10.6803 5.45943C11.0205 4.43858 11.9759 3.75 13.052 3.75H16.9482C18.0242 3.75 18.9796 4.43858 19.3199 5.45943L20.0001 7.5M10.0001 7.5H7.02261C6.09338 7.5 5.48901 8.47789 5.90457 9.30902L6.51586 10.5316C6.75264 11.0052 6.88646 11.5235 6.9085 12.0525L7.35032 22.6561C7.43401 24.6647 9.08673 26.25 11.0971 26.25H18.9031C20.9134 26.25 22.5661 24.6647 22.6498 22.6561L23.0916 12.0525C23.1137 11.5235 23.2475 11.0052 23.4843 10.5316L24.0956 9.30902C24.5111 8.47789 23.9068 7.5 22.9775 7.5H20.0001M10.0001 7.5H20.0001M18.05 20.625L18.3625 13.125M11.9501 20.625L11.6376 13.125" stroke="#363538" stroke-width="1.5" stroke-linecap="round" stroke-linejoin="round"/>
</svg>
