<svg width="30" height="30" viewBox="0 0 30 30" fill="none" xmlns="http://www.w3.org/2000/svg">
<path d="M22.9808 10L23.3699 7.47093C23.5886 6.04937 24.8118 5 26.2501 5M22.9808 10L21.7392 18.0702C21.4578 19.8996 19.8837 21.25 18.0329 21.25H9.2582C7.50058 21.25 5.97878 20.0293 5.59749 18.3135L4.76416 14.5635C4.24373 12.2216 6.02581 10 8.42486 10H22.9808ZM19.3751 24.6875C19.3751 25.2053 18.9553 25.625 18.4376 25.625C17.9198 25.625 17.5001 25.2053 17.5001 24.6875C17.5001 24.1697 17.9198 23.75 18.4376 23.75C18.9553 23.75 19.3751 24.1697 19.3751 24.6875ZM9.37505 24.6875C9.37505 25.2053 8.95532 25.625 8.43755 25.625C7.91979 25.625 7.50005 25.2053 7.50005 24.6875C7.50005 24.1697 7.91979 23.75 8.43755 23.75C8.95532 23.75 9.37505 24.1697 9.37505 24.6875Z" stroke="#242526" stroke-linecap="round" stroke-linejoin="round"/>
</svg>
