<svg width="30" height="30" viewBox="0 0 30 30" fill="none" xmlns="http://www.w3.org/2000/svg">
<path d="M4.375 6.875C4.375 5.49429 5.49429 4.375 6.875 4.375H10.625C12.0057 4.375 13.125 5.49429 13.125 6.875V10.625C13.125 12.0057 12.0057 13.125 10.625 13.125H6.875C5.49429 13.125 4.375 12.0057 4.375 10.625V6.875Z" stroke="#242526" stroke-linejoin="round"/>
<path d="M16.875 6.875C16.875 5.49429 17.9943 4.375 19.375 4.375H23.125C24.5057 4.375 25.625 5.49429 25.625 6.875V10.625C25.625 12.0057 24.5057 13.125 23.125 13.125H19.375C17.9943 13.125 16.875 12.0057 16.875 10.625V6.875Z" stroke="#242526" stroke-linejoin="round"/>
<path d="M16.875 19.375C16.875 17.9943 17.9943 16.875 19.375 16.875H23.125C24.5057 16.875 25.625 17.9943 25.625 19.375V23.125C25.625 24.5057 24.5057 25.625 23.125 25.625H19.375C17.9943 25.625 16.875 24.5057 16.875 23.125V19.375Z" stroke="#242526" stroke-linejoin="round"/>
<path d="M4.375 19.375C4.375 17.9943 5.49429 16.875 6.875 16.875H10.625C12.0057 16.875 13.125 17.9943 13.125 19.375V23.125C13.125 24.5057 12.0057 25.625 10.625 25.625H6.875C5.49429 25.625 4.375 24.5057 4.375 23.125V19.375Z" stroke="#242526" stroke-linejoin="round"/>
</svg>
