<svg width="35" height="35" viewBox="0 0 35 35" fill="none" xmlns="http://www.w3.org/2000/svg">
<path d="M17.9413 15.4805L25.4626 9.26752L19.4533 17.0437L28.9786 17.3925C29.8816 16.8218 30.6376 16.2461 31.1809 15.6844C34.3286 12.43 34.3286 7.15355 31.1809 3.89914C28.0332 0.644732 22.9297 0.644732 19.782 3.89914C19.085 4.61979 18.3599 5.71026 17.6513 7.02662L17.9413 15.4795V15.4805Z" fill="#F9A7EA"/>
<path d="M6.02143 17.3937L15.5467 17.0448L9.53749 9.26862L17.0587 15.4816L17.3488 7.02873C16.6401 5.71337 15.9151 4.6219 15.218 3.90125C12.0703 0.646843 6.96688 0.646843 3.81916 3.90125C0.671445 7.15566 0.671445 12.4321 3.81916 15.6865C4.36247 16.2482 5.11849 16.8239 6.02143 17.3947V17.3937Z" fill="#F9A7EA"/>
<path d="M17.0597 19.5194L9.53842 25.7324L15.5477 17.9562L6.02236 17.6074C5.11942 18.1781 4.36345 18.7538 3.82014 19.3155C0.672424 22.5699 0.672424 27.8464 3.82014 31.1008C6.96786 34.3552 12.0713 34.3552 15.219 31.1008C15.916 30.3801 16.6411 29.2897 17.3497 27.9743L17.0597 19.5214V19.5194Z" fill="#F9A7EA"/>
<path d="M28.9786 17.6064L19.4533 17.9552L25.4626 25.7314L17.9413 19.5185L17.6513 27.9713C18.3599 29.2867 19.085 30.3782 19.782 31.0988C22.9297 34.3532 28.0332 34.3532 31.1809 31.0988C34.3286 27.8444 34.3286 22.568 31.1809 19.3136C30.6376 18.7518 29.8816 18.1761 28.9786 17.6054V17.6064Z" fill="#F9A7EA"/>
</svg>
