<svg width="204" height="35" viewBox="0 0 204 35" fill="none" xmlns="http://www.w3.org/2000/svg">
<path d="M203.369 9.15665C202.859 13.7457 201.907 17.7908 201.703 19.1505C201.499 20.5103 201.397 21.802 201.397 23.0257C201.397 28.9065 203.369 32.9856 203.369 32.9856H196.842C195.754 32.9856 194.02 31.6939 193.137 29.9942C192.661 29.0424 192.253 27.7847 192.253 26.289C192.253 23.9775 193.239 21.1221 196.604 18.1647C201.601 13.7457 202.077 9.97248 202.077 8.68076C202.077 8.37482 202.043 8.20486 202.043 8.20486C201.839 6.98112 200.921 5.21349 199.221 5.21349C198.61 5.21349 198.168 5.1795 198.168 5.1795C199.357 5.92734 199.901 7.38903 199.901 7.38903C200.173 8.03489 200.309 8.68076 200.309 9.36061C200.309 13.2698 195.992 17.043 195.89 17.145C194.496 18.2667 192.695 18.8786 190.961 18.8786C189.227 18.8786 187.562 18.2667 186.304 17.009C185.012 15.6833 183.925 14.3236 183.245 12.7599C182.599 11.2982 182.361 9.8705 182.361 8.68076C182.361 6.60719 183.007 5.1795 183.007 5.1795C181.307 5.6554 180.355 6.98112 180.185 8.37482C180.185 8.37482 180.151 8.57878 180.151 8.9527C180.151 10.2784 180.661 13.8817 185.556 18.1647C188.684 20.9522 189.601 23.8755 189.601 26.255C189.601 27.8187 189.193 29.1784 188.786 30.0622C188.174 31.4219 186.27 32.9856 184.978 32.9856H178.792C178.792 32.9856 180.287 29.8923 180.287 24.5554C180.287 23.2297 180.185 21.802 179.981 20.2723C179.642 17.9948 177.738 14.1876 177.738 10.7203C177.738 7.86493 179.03 5.21349 183.483 3.78579H191.063C191.063 3.78579 189.601 5.79137 189.601 8.23885C189.601 8.85072 189.703 9.46259 189.907 10.1085C190.519 11.8761 191.539 13.7797 193.783 15.2074C194.02 15.3433 194.7 15.5813 195.38 15.5813C195.89 15.5813 196.434 15.4453 196.774 15.0034C196.774 15.0034 197.148 14.4935 197.148 13.7457C197.148 12.7259 196.502 11.2302 193.511 9.80252C191.981 9.08867 191.335 7.66097 191.335 6.40324C191.335 5.07752 192.049 3.88777 193.239 3.78579H198.677C201.295 3.85378 203.402 5.99532 203.402 8.57878C203.402 8.78273 203.402 8.9527 203.369 9.15665Z" fill="#81C07F"/>
<path d="M173.922 21.564C174.33 22.3799 174.84 24.0455 174.84 25.8811C174.84 29.3144 173.005 33.2915 164.88 33.2915C156.28 33.2915 154.241 29.6883 154.241 26.1531C154.241 24.5214 154.648 22.9237 155.09 21.666C155.532 20.3743 155.668 19.3545 155.668 18.5047C155.668 15.7173 153.969 14.5955 153.969 11.1282C153.969 10.6523 154.003 10.1424 154.071 9.56456C154.818 3.7178 164.132 3.61582 164.744 3.61582H164.778C171.135 3.61582 174.194 6.77715 174.67 9.22464C174.772 9.66654 174.806 10.1084 174.806 10.5164C174.806 13.2698 173.039 15.2754 173.039 18.0968C173.039 19.1165 173.277 20.2383 173.922 21.564ZM167.124 32.0338C168.518 31.4899 170.183 29.8583 170.183 27.7847C170.183 26.9349 169.911 26.0171 169.231 25.0653C167.056 22.0059 165.662 20.0004 165.662 17.4849C165.662 15.5133 166.512 13.2358 168.484 9.93848C168.484 9.93848 168.891 9.12266 168.891 8.10287C168.891 7.11708 168.518 5.92733 166.988 5.1455C166.172 4.73758 165.186 4.53363 164.2 4.53363C163.351 4.53363 162.501 4.6696 161.787 4.94154C160.665 5.38345 159.102 6.40323 159.102 8.03489C159.102 8.51079 159.238 9.05467 159.577 9.63255C161.413 12.8959 162.739 15.4113 162.739 18.0288C162.739 20.1023 161.923 22.2779 159.951 24.9633C159.204 25.9831 158.898 26.9349 158.898 27.7847C158.898 29.7563 160.529 31.252 161.855 31.8638C162.671 32.2378 163.657 32.4417 164.676 32.4417C165.526 32.4417 166.376 32.3058 167.124 32.0338Z" fill="#81C07F"/>
<path d="M152.141 26.0171C152.141 27.9547 151.359 29.6883 150.067 30.946C148.775 32.2038 146.974 32.9856 145.002 32.9856H130.521C132.731 30.8101 133.513 28.7705 133.513 26.9689C133.513 22.9577 129.604 20.2383 129.604 20.2383H134.295C137.32 20.2383 141.841 20.9182 141.841 24.1815C141.841 26.0171 140.243 27.5128 138.782 28.9745C138.782 28.9745 136.878 30.4362 136.878 31.354C136.878 31.7959 137.32 32.1358 138.578 32.1358C141.399 32.1358 144.322 27.5468 144.322 23.5696C144.322 21.3261 143.371 19.2525 140.855 18.3687C136.3 16.771 129.604 20.0683 129.604 10.5844C129.604 5.89335 134.94 3.78579 139.767 3.78579H150.611C148.979 5.00953 148.436 6.53921 148.436 8.03489C148.436 11.0942 150.713 14.0856 150.781 14.0856H143.813C142.079 14.0856 140.481 12.6579 140.481 10.8563C140.481 9.9045 140.889 8.81673 141.977 7.79694C142.589 7.18507 144.22 6.0973 144.22 5.41745C144.22 5.11151 143.914 4.90755 143.167 4.80558C143.031 4.77158 142.861 4.77158 142.725 4.77158C139.801 4.77158 137.422 8.4768 137.422 11.8081C137.422 14.0176 138.442 16.0572 141.093 16.805C143.201 17.3829 145.036 17.9608 146.6 18.5047C149.897 19.5924 152.141 22.6178 152.141 26.0171Z" fill="#81C07F"/>
<path d="M128.671 26.0171C128.671 27.9547 127.889 29.6883 126.598 30.946C125.306 32.2038 123.504 32.9856 121.533 32.9856H107.052C109.261 30.8101 110.043 28.7705 110.043 26.9689C110.043 22.9577 106.134 20.2383 106.134 20.2383H110.825C113.85 20.2383 118.371 20.9182 118.371 24.1815C118.371 26.0171 116.774 27.5128 115.312 28.9745C115.312 28.9745 113.408 30.4362 113.408 31.354C113.408 31.7959 113.85 32.1358 115.108 32.1358C117.929 32.1358 120.853 27.5468 120.853 23.5696C120.853 21.3261 119.901 19.2525 117.386 18.3687C112.831 16.771 106.134 20.0683 106.134 10.5844C106.134 5.89335 111.471 3.78579 116.298 3.78579H127.141C125.51 5.00953 124.966 6.53921 124.966 8.03489C124.966 11.0942 127.243 14.0856 127.311 14.0856H120.343C118.609 14.0856 117.012 12.6579 117.012 10.8563C117.012 9.9045 117.42 8.81673 118.507 7.79694C119.119 7.18507 120.751 6.0973 120.751 5.41745C120.751 5.11151 120.445 4.90755 119.697 4.80558C119.561 4.77158 119.391 4.77158 119.255 4.77158C116.332 4.77158 113.952 8.4768 113.952 11.8081C113.952 14.0176 114.972 16.0572 117.623 16.805C119.731 17.3829 121.567 17.9608 123.13 18.5047C126.428 19.5924 128.671 22.6178 128.671 26.0171Z" fill="#81C07F"/>
<path d="M103.016 21.564C103.423 22.3799 103.933 24.0455 103.933 25.8811C103.933 29.3144 102.098 33.2915 93.9735 33.2915C85.3733 33.2915 83.3337 29.6883 83.3337 26.1531C83.3337 24.5214 83.7416 22.9237 84.1835 21.666C84.6254 20.3743 84.7614 19.3545 84.7614 18.5047C84.7614 15.7173 83.0618 14.5955 83.0618 11.1282C83.0618 10.6523 83.0958 10.1424 83.1637 9.56456C83.9116 3.7178 93.2256 3.61582 93.8375 3.61582H93.8715C100.228 3.61582 103.287 6.77715 103.763 9.22464C103.865 9.66654 103.899 10.1084 103.899 10.5164C103.899 13.2698 102.132 15.2754 102.132 18.0968C102.132 19.1165 102.37 20.2383 103.016 21.564ZM96.217 32.0338C97.6107 31.4899 99.2763 29.8583 99.2763 27.7847C99.2763 26.9349 99.0044 26.0171 98.3245 25.0653C96.149 22.0059 94.7553 20.0004 94.7553 17.4849C94.7553 15.5133 95.6051 13.2358 97.5767 9.93848C97.5767 9.93848 97.9846 9.12266 97.9846 8.10287C97.9846 7.11708 97.6107 5.92733 96.081 5.1455C95.2652 4.73758 94.2794 4.53363 93.2936 4.53363C92.4438 4.53363 91.594 4.6696 90.8801 4.94154C89.7584 5.38345 88.1947 6.40323 88.1947 8.03489C88.1947 8.51079 88.3307 9.05467 88.6706 9.63255C90.5062 12.8959 91.8319 15.4113 91.8319 18.0288C91.8319 20.1023 91.0161 22.2779 89.0445 24.9633C88.2967 25.9831 87.9907 26.9349 87.9907 27.7847C87.9907 29.7563 89.6224 31.252 90.9481 31.8638C91.7639 32.2378 92.7497 32.4417 93.7695 32.4417C94.6193 32.4417 95.4691 32.3058 96.217 32.0338Z" fill="#81C07F"/>
<path d="M80.3103 24.6914C81.1601 25.5072 81.67 26.6969 81.67 27.9887V32.9856C81.67 32.9856 80.0383 31.9658 77.3189 31.9658C76.5031 31.9658 75.5513 32.0678 74.4975 32.3398C72.254 32.9176 68.1408 32.9856 68.1408 32.9856H64.6056C64.6056 32.9856 67.1211 28.7025 67.1211 19.1845C67.1211 17.8928 67.0871 16.5331 66.9851 15.0374C66.4072 6.98112 64.6056 3.78579 64.6056 3.78579H70.9962C73.0698 3.78579 75.0754 6.23327 75.0754 10.3804C75.0754 11.1622 75.0074 12.0121 74.8374 12.9299C74.3275 15.8872 72.288 18.1308 69.3646 23.5356C68.8207 24.5214 67.189 27.5468 67.1551 29.0424V29.3144C67.1551 30.9121 67.7329 31.8638 68.6847 31.8638C69.1606 31.8638 69.7385 31.6259 70.3844 31.048C71.0302 30.4701 71.948 28.7365 72.05 28.4306C74.2256 23.4336 77.013 23.2977 77.013 23.2977C78.3047 23.2977 79.4604 23.8415 80.3103 24.6914Z" fill="#81C07F"/>
<path d="M63.5791 25.5072V25.5752C63.5791 25.7791 63.6131 25.9831 63.6131 26.1531C63.6131 29.9263 60.5198 32.9856 56.7126 32.9856H40.804C40.804 32.9856 44.0333 28.3966 44.0333 21.9719C44.0333 21.0201 43.9653 20.0683 43.7953 19.0486C43.6594 18.0968 40.804 10.0065 40.804 3.78579H54.537C58.1743 3.78579 61.0637 6.94712 61.0637 10.1085C61.0637 11.1962 60.7237 12.25 59.9759 13.2018C58.8201 14.6635 57.1205 15.1394 55.3869 15.1394C53.0754 15.1394 50.7299 14.2896 49.5401 13.6097C52.3615 16.0572 53.0414 16.1592 55.2169 17.145C60.4858 19.5245 63.3412 22.9237 63.5791 25.5072ZM49.6081 4.80558H44.2372C44.5772 6.06331 45.461 9.8705 48.4523 11.8081C49.2342 12.318 50.084 12.6579 50.9338 12.6579C51.2737 12.6579 51.6477 12.5899 52.0216 12.454C53.4493 11.9441 54.2651 10.7883 54.2991 9.29263V9.19065C54.2991 6.5732 51.9536 4.80558 49.6081 4.80558ZM49.2342 32.0678C49.5061 32.0338 56.4406 30.946 56.4406 25.9151C56.4406 20.6462 49.4041 15.2074 48.4183 14.2216C46.9227 12.7259 43.7273 9.15665 43.3194 5.82536C43.3194 9.4286 45.325 15.3094 48.6223 19.8984C50.4239 22.3799 51.2058 25.0313 51.2058 27.3088C51.2058 29.4504 50.4919 31.218 49.2342 32.0678Z" fill="#81C07F"/>
<path fill-rule="evenodd" clip-rule="evenodd" d="M190.896 4.03759C190.513 4.64933 189.601 6.30633 189.601 8.23885C189.601 8.85072 189.703 9.46259 189.907 10.1085C190.519 11.8761 191.539 13.7797 193.782 15.2074C194.02 15.3433 194.7 15.5813 195.38 15.5813C195.89 15.5813 196.434 15.4453 196.774 15.0034C196.774 15.0034 197.148 14.4935 197.148 13.7457C197.148 12.7259 196.502 11.2302 193.511 9.80252C191.981 9.08867 191.335 7.66097 191.335 6.40324C191.335 5.07752 192.049 3.88777 193.239 3.78579H198.677C201.295 3.85378 203.402 5.99533 203.402 8.57878C203.402 8.78274 203.402 8.9527 203.368 9.15666C203.005 12.431 202.416 15.4285 202.034 17.3711C201.881 18.1511 201.761 18.761 201.703 19.1505C201.499 20.5103 201.397 21.802 201.397 23.0257C201.397 28.0513 202.837 31.7611 203.256 32.7338C203.327 32.8993 203.368 32.9856 203.368 32.9856H196.842C195.754 32.9856 194.02 31.6939 193.137 29.9942C192.661 29.0424 192.253 27.7847 192.253 26.289C192.253 23.9775 193.239 21.1221 196.604 18.1648C201.601 13.7457 202.077 9.97248 202.077 8.68076C202.077 8.37482 202.043 8.20486 202.043 8.20486C201.839 6.98112 200.921 5.21349 199.221 5.21349C198.999 5.21349 198.798 5.20899 198.634 5.20326C198.346 5.19325 198.168 5.1795 198.168 5.1795C198.3 5.26244 198.424 5.35417 198.54 5.45171C199.471 6.2336 199.901 7.38903 199.901 7.38903C200.173 8.03489 200.309 8.68076 200.309 9.36061C200.309 13.0952 196.369 16.7058 195.928 17.1097C195.908 17.1285 195.895 17.1404 195.89 17.145C194.496 18.2667 192.695 18.8786 190.961 18.8786C189.227 18.8786 187.562 18.2667 186.304 17.009C185.012 15.6833 183.925 14.3236 183.245 12.7599C182.599 11.2982 182.361 9.87051 182.361 8.68076C182.361 7.16876 182.704 6.00017 182.89 5.4781C182.959 5.28421 183.007 5.1795 183.007 5.1795C182.9 5.20942 182.796 5.24269 182.695 5.27913C181.191 5.82235 180.345 7.06873 180.185 8.37482C180.185 8.37482 180.151 8.57878 180.151 8.9527C180.151 10.2784 180.661 13.8817 185.556 18.1648C188.684 20.9522 189.601 23.8755 189.601 26.255C189.601 27.8187 189.193 29.1784 188.786 30.0622C188.174 31.4219 186.27 32.9856 184.978 32.9856H178.792C178.792 32.9856 178.833 32.9004 178.902 32.7338C179.247 31.8969 180.287 29.0064 180.287 24.5554C180.287 23.2297 180.185 21.802 179.981 20.2723C179.855 19.4224 179.51 18.3594 179.128 17.1806C178.486 15.2006 177.738 12.8937 177.738 10.7203C177.738 7.86493 179.03 5.21349 183.483 3.78579H191.063C191.063 3.78579 190.998 3.87458 190.896 4.03759ZM179.732 20.3074C179.608 19.4802 179.274 18.448 178.894 17.2777C178.763 16.8731 178.627 16.452 178.492 16.0171C177.972 14.3443 177.486 12.4946 177.486 10.7203C177.486 9.25414 177.818 7.82089 178.737 6.56867C179.656 5.31699 181.143 4.27151 183.406 3.54602L183.443 3.53399H191.558L191.267 3.9341L191.266 3.93463L191.264 3.93804C191.261 3.94126 191.258 3.94639 191.253 3.95336C191.243 3.9673 191.228 3.98863 191.209 4.01696C191.171 4.07364 191.116 4.15828 191.05 4.26785C190.917 4.48712 190.739 4.80537 190.562 5.19835C190.205 5.98654 189.853 7.06324 189.853 8.23885C189.853 8.82056 189.95 9.40564 190.146 10.0289C190.746 11.7619 191.738 13.6057 193.912 14.9915C194.118 15.107 194.75 15.3295 195.38 15.3295C195.854 15.3295 196.3 15.2029 196.572 14.8532C196.573 14.8509 196.576 14.8468 196.58 14.8408C196.588 14.8289 196.6 14.8098 196.615 14.7842C196.646 14.7329 196.687 14.6557 196.729 14.5569C196.813 14.3585 196.896 14.0778 196.896 13.7457C196.896 12.861 196.346 11.4354 193.403 10.0304C191.772 9.26886 191.083 7.74301 191.083 6.40324C191.083 5.01543 191.838 3.65309 193.217 3.53491L193.228 3.53399H198.681L198.684 3.53408C201.435 3.60554 203.654 5.8562 203.654 8.57878V8.586C203.654 8.7838 203.654 8.96978 203.618 9.19131C203.253 12.4737 202.657 15.5072 202.276 17.4484C202.125 18.2168 202.008 18.8141 201.952 19.1879C201.749 20.5367 201.649 21.8159 201.649 23.0257C201.649 25.9384 202.137 28.4051 202.625 30.1429C202.869 31.0116 203.113 31.6974 203.295 32.1649C203.386 32.3987 203.462 32.5778 203.514 32.6978C203.541 32.7578 203.561 32.803 203.575 32.8329C203.582 32.8479 203.587 32.859 203.59 32.8662L203.594 32.8741L203.595 32.8758L203.595 32.876L203.77 33.2374H196.842C196.214 33.2374 195.454 32.8737 194.757 32.3251C194.052 31.7696 193.373 30.9947 192.913 30.1104L192.912 30.1086L192.911 30.1069C192.422 29.1275 192.001 27.8313 192.001 26.289C192.001 23.8953 193.026 20.9739 196.438 17.9756C201.38 13.6049 201.825 9.90087 201.825 8.68076C201.825 8.53711 201.817 8.42695 201.809 8.35444C201.807 8.3279 201.804 8.30642 201.801 8.29018C201.801 8.28424 201.8 8.27901 201.799 8.27448C201.798 8.26924 201.798 8.26496 201.797 8.26166L201.796 8.2567L201.796 8.25424L201.796 8.25394L201.796 8.25353L201.795 8.25026L201.794 8.24625C201.698 7.66917 201.432 6.96239 200.995 6.40584C200.56 5.85289 199.973 5.46529 199.221 5.46529C199.118 5.46529 199.019 5.46433 198.927 5.46274C199.252 5.77998 199.506 6.12875 199.695 6.43197C199.843 6.67137 199.953 6.88642 200.026 7.04225C200.062 7.12026 200.09 7.18369 200.108 7.22823C200.117 7.25051 200.124 7.26809 200.129 7.28043C200.132 7.2866 200.133 7.29146 200.135 7.29495L200.135 7.2956C200.418 7.96919 200.561 8.64682 200.561 9.36061C200.561 11.3997 199.44 13.3757 198.339 14.8323C197.785 15.5652 197.228 16.1767 196.804 16.6113C196.591 16.8287 196.412 17.0022 196.282 17.1247C196.217 17.186 196.165 17.2344 196.127 17.2691L196.082 17.3102C196.07 17.3215 196.067 17.3242 196.068 17.3233L196.059 17.3326L196.048 17.3411C194.609 18.4997 192.751 19.1304 190.961 19.1304C189.168 19.1304 187.436 18.4967 186.126 17.187L186.124 17.1847C184.823 15.8499 183.712 14.4648 183.014 12.8611C182.353 11.3653 182.109 9.90295 182.109 8.68076C182.109 7.61819 182.275 6.72112 182.44 6.08871C182.49 5.89863 182.54 5.73224 182.586 5.59222C181.297 6.13522 180.577 7.24613 180.435 8.4053L180.435 8.41078L180.434 8.41566L180.434 8.41597L180.434 8.41622L180.433 8.42103C180.432 8.42575 180.431 8.43357 180.43 8.44442C180.427 8.46612 180.423 8.49994 180.419 8.54535C180.411 8.63618 180.403 8.77337 180.403 8.9527C180.403 10.2035 180.88 13.7384 185.722 17.9753L185.724 17.9768C188.904 20.8115 189.853 23.803 189.853 26.255C189.853 27.8598 189.435 29.2549 189.015 30.1665C188.687 30.8938 188.027 31.6544 187.292 32.2318C186.564 32.8044 185.709 33.2374 184.978 33.2374H178.39L178.565 32.8762L178.565 32.875L178.568 32.8694C178.571 32.8642 178.574 32.856 178.579 32.8449C178.59 32.8226 178.605 32.7885 178.625 32.7427C178.664 32.6512 178.721 32.5132 178.79 32.3304C178.927 31.9647 179.111 31.4197 179.296 30.7086C179.665 29.2864 180.036 27.2002 180.036 24.5554C180.036 23.243 179.935 21.8271 179.732 20.3074Z" fill="#81C07F"/>
<path fill-rule="evenodd" clip-rule="evenodd" d="M153.82 9.53514L153.821 9.53262C154.215 6.4528 156.865 4.91971 159.385 4.15666C161.92 3.38952 164.431 3.36403 164.744 3.36403H164.778C171.209 3.36403 174.408 6.56963 174.917 9.17256C175.023 9.63631 175.058 10.0964 175.058 10.5164C175.058 11.9299 174.608 13.1498 174.172 14.3308L174.159 14.3682C173.715 15.5705 173.29 16.7372 173.29 18.0968C173.29 19.0738 173.517 20.1578 174.148 21.453C174.573 22.3035 175.092 24.0067 175.092 25.8811C175.092 27.6404 174.621 29.5688 173.082 31.055C171.544 32.5398 168.98 33.5433 164.88 33.5433C160.551 33.5433 157.822 32.6375 156.173 31.2401C154.515 29.8357 153.989 27.9702 153.989 26.1531C153.989 24.4829 154.406 22.8559 154.852 21.5839C155.286 20.3173 155.416 19.3252 155.416 18.5047C155.416 17.2367 155.053 16.3319 154.651 15.3315C154.629 15.2763 154.607 15.2208 154.585 15.1649C154.156 14.0929 153.717 12.91 153.717 11.1282C153.717 10.6403 153.752 10.1203 153.82 9.53514ZM155.09 21.666C154.648 22.9237 154.241 24.5214 154.241 26.1531C154.241 29.6883 156.28 33.2915 164.88 33.2915C173.005 33.2915 174.84 29.3144 174.84 25.8811C174.84 24.0455 174.33 22.3799 173.922 21.564C173.277 20.2383 173.039 19.1165 173.039 18.0968C173.039 16.6775 173.486 15.4646 173.93 14.2591C174.37 13.0683 174.806 11.8847 174.806 10.5164C174.806 10.1084 174.772 9.66654 174.67 9.22464C174.194 6.77715 171.135 3.61582 164.778 3.61582H164.744C164.132 3.61582 154.818 3.7178 154.071 9.56456C154.003 10.1424 153.969 10.6523 153.969 11.1282C153.969 12.9564 154.441 14.1325 154.888 15.2444C155.288 16.2415 155.668 17.1869 155.668 18.5047C155.668 19.3545 155.532 20.3743 155.09 21.666ZM168.262 9.81863C166.289 13.1195 165.41 15.444 165.41 17.4849C165.41 20.0962 166.864 22.1702 169.026 25.2112L169.026 25.2116C169.679 26.125 169.931 26.9923 169.931 27.7847C169.931 29.7236 168.362 31.2789 167.035 31.7982C166.319 32.0582 165.5 32.1899 164.676 32.1899C163.689 32.1899 162.739 31.9922 161.96 31.6352C160.677 31.0427 159.149 29.615 159.149 27.7847C159.149 26.9984 159.432 26.0976 160.154 25.1122C162.144 22.4023 162.991 20.1752 162.991 18.0288C162.991 15.3336 161.625 12.7594 159.797 9.5091L159.796 9.50698L159.794 9.50488C159.475 8.96189 159.353 8.46166 159.353 8.03489C159.353 7.30706 159.7 6.70549 160.199 6.22298C160.699 5.73896 161.338 5.38925 161.878 5.17633C162.558 4.91759 163.376 4.78543 164.2 4.78543C165.153 4.78543 166.099 4.9829 166.874 5.3702C167.598 5.74011 168.034 6.19865 168.293 6.66891C168.552 7.14156 168.64 7.64132 168.64 8.10288C168.64 8.58047 168.544 9.0136 168.447 9.32905C168.398 9.4862 168.35 9.61259 168.315 9.6988C168.297 9.74187 168.282 9.7748 168.272 9.7964C168.268 9.80617 168.264 9.81362 168.262 9.81863ZM166.988 5.1455C168.518 5.92733 168.891 7.11708 168.891 8.10288C168.891 9.12266 168.484 9.93849 168.484 9.93849C166.512 13.2358 165.662 15.5133 165.662 17.4849C165.662 20.0004 167.056 22.0059 169.231 25.0653C169.911 26.0171 170.183 26.9349 170.183 27.7847C170.183 29.8583 168.518 31.4899 167.124 32.0338C166.376 32.3058 165.526 32.4417 164.676 32.4417C163.657 32.4417 162.671 32.2378 161.855 31.8638C160.529 31.252 158.898 29.7563 158.898 27.7847C158.898 26.9349 159.203 25.9831 159.951 24.9633C161.923 22.2779 162.739 20.1023 162.739 18.0288C162.739 15.4113 161.413 12.8959 159.577 9.63255C159.237 9.05467 159.102 8.51079 159.102 8.03489C159.102 6.40323 160.665 5.38345 161.787 4.94154C162.501 4.6696 163.351 4.53363 164.2 4.53363C165.186 4.53363 166.172 4.73759 166.988 5.1455Z" fill="#81C07F"/>
<path fill-rule="evenodd" clip-rule="evenodd" d="M129.907 33.2374L130.345 32.8062C132.517 30.6669 133.261 28.6887 133.261 26.9689C133.261 25.0459 132.323 23.4188 131.364 22.2599C130.886 21.6824 130.408 21.227 130.049 20.9162C129.87 20.7609 129.721 20.6421 129.618 20.5626C129.566 20.5229 129.526 20.4929 129.499 20.4732C129.485 20.4634 129.475 20.4561 129.469 20.4513L129.461 20.4462L129.46 20.4451L129.46 20.4449L128.801 19.9865H134.294C135.819 19.9865 137.742 20.157 139.292 20.751C140.844 21.3453 142.093 22.3973 142.093 24.1815C142.093 25.1754 141.66 26.0607 141.062 26.868C140.526 27.5919 139.84 28.2754 139.18 28.9328C139.106 29.0063 139.032 29.0796 138.96 29.1525L138.948 29.1642M140.772 18.6063C139.671 18.2204 138.433 18.1274 137.163 18.0636C137.03 18.0569 136.898 18.0506 136.765 18.0442C135.636 17.9904 134.49 17.9358 133.46 17.6782C132.297 17.3873 131.255 16.8327 130.511 15.7166C129.774 14.6091 129.352 12.9803 129.352 10.5844C129.352 8.12431 130.758 6.35215 132.75 5.20762C134.735 4.06677 137.323 3.53399 139.767 3.53399H151.366L150.762 3.98723C149.201 5.15819 148.687 6.60932 148.687 8.03489C148.687 9.50739 149.237 10.9785 149.807 12.0929C150.091 12.6477 150.376 13.1083 150.594 13.4289C150.703 13.5893 150.794 13.7134 150.859 13.7958C150.891 13.8374 150.915 13.8661 150.93 13.8827C150.939 13.8916 150.941 13.8933 150.938 13.891C150.938 13.8906 150.936 13.8888 150.932 13.8861C150.929 13.8833 150.924 13.8795 150.918 13.8755C150.912 13.8714 150.9 13.8636 150.883 13.8559C150.87 13.8499 150.833 13.8338 150.781 13.8338V14.0856C150.769 14.0856 150.692 13.9967 150.572 13.8338C149.995 13.0521 148.435 10.5668 148.435 8.03489C148.435 6.64014 148.908 5.21582 150.295 4.03759C150.396 3.95234 150.501 3.86837 150.611 3.78579H139.767C134.94 3.78579 129.603 5.89335 129.603 10.5844C129.603 17.4497 133.112 17.6175 136.778 17.7928C138.176 17.8596 139.597 17.9276 140.855 18.3687C143.371 19.2525 144.322 21.3261 144.322 23.5696C144.322 27.5468 141.399 32.1358 138.578 32.1358C137.32 32.1358 136.878 31.7959 136.878 31.354C136.878 30.4362 138.781 28.9745 138.781 28.9745C138.854 28.9015 138.928 28.8284 139.001 28.7553C140.399 27.3626 141.841 25.9255 141.841 24.1815C141.841 20.9182 137.32 20.2383 134.294 20.2383H129.603C129.603 20.2383 129.728 20.325 129.933 20.4901C130.874 21.2503 133.513 23.6737 133.513 26.9689C133.513 28.7008 132.79 30.6527 130.771 32.7338C130.69 32.8175 130.607 32.9015 130.521 32.9856H145.002C146.974 32.9856 148.775 32.2038 150.067 30.946C151.359 29.6883 152.141 27.9547 152.141 26.0171C152.141 22.6178 149.897 19.5924 146.6 18.5047C145.036 17.9608 143.201 17.3829 141.093 16.805C138.442 16.0572 137.422 14.0176 137.422 11.8081C137.422 8.4768 139.801 4.77158 142.725 4.77158C142.861 4.77158 143.031 4.77158 143.167 4.80558C143.914 4.90756 144.22 5.11151 144.22 5.41745C144.22 5.90605 143.378 6.60534 142.676 7.18725C142.402 7.41503 142.149 7.62482 141.977 7.79695C140.889 8.81673 140.481 9.9045 140.481 10.8563C140.481 12.6579 142.079 14.0856 143.812 14.0856H150.781V14.3374H143.812C141.953 14.3374 140.229 12.8103 140.229 10.8563C140.229 9.82811 140.671 8.67709 141.802 7.61598C141.964 7.45396 142.189 7.26483 142.425 7.06897C142.455 7.0439 142.485 7.01866 142.516 6.99327C142.729 6.81592 142.952 6.63123 143.16 6.44504C143.399 6.23144 143.609 6.02423 143.758 5.83458C143.914 5.63527 143.969 5.49766 143.969 5.41745C143.969 5.37114 143.955 5.31764 143.844 5.25094C143.719 5.1755 143.496 5.10461 143.133 5.05507L143.119 5.0532L143.105 5.04986C143.005 5.02486 142.869 5.02338 142.725 5.02338C141.374 5.02338 140.115 5.8815 139.182 7.18708C138.25 8.48934 137.674 10.1977 137.674 11.8081C137.674 12.8755 137.92 13.886 138.473 14.715C139.023 15.5404 139.888 16.2035 141.161 16.5625M146.681 18.2663C150.076 19.3874 152.392 22.5057 152.392 26.0171C152.392 28.0246 151.582 29.8227 150.243 31.1265C148.905 32.429 147.041 33.2374 145.002 33.2374H129.907" fill="#81C07F"/>
<path fill-rule="evenodd" clip-rule="evenodd" d="M106.437 33.2374L106.875 32.8062C109.048 30.6669 109.791 28.6887 109.791 26.9689C109.791 25.0459 108.853 23.4188 107.894 22.2599C107.417 21.6824 106.938 21.227 106.58 20.9162C106.401 20.7609 106.252 20.6421 106.148 20.5626C106.097 20.5229 106.056 20.4929 106.029 20.4732C106.016 20.4634 106.006 20.4561 105.999 20.4513L105.992 20.4462L105.99 20.4451L105.99 20.4449L105.331 19.9865H110.825C112.35 19.9865 114.272 20.157 115.823 20.751C117.374 21.3453 118.623 22.3973 118.623 24.1815C118.623 25.1754 118.19 26.0607 117.592 26.868C117.056 27.5919 116.37 28.2754 115.71 28.9328C115.636 29.0063 115.563 29.0796 115.49 29.1525L115.478 29.1642M117.302 18.6063C116.202 18.2204 114.963 18.1274 113.693 18.0636C113.561 18.0569 113.428 18.0506 113.295 18.0442C112.166 17.9904 111.021 17.9358 109.99 17.6782C108.827 17.3873 107.785 16.8327 107.042 15.7166C106.304 14.6091 105.882 12.9803 105.882 10.5844C105.882 8.12431 107.288 6.35215 109.28 5.20762C111.266 4.06677 113.853 3.53399 116.298 3.53399H127.897L127.292 3.98723C125.731 5.15819 125.218 6.60932 125.218 8.03489C125.218 9.50739 125.768 10.9785 126.337 12.0929C126.621 12.6477 126.907 13.1083 127.124 13.4289C127.233 13.5893 127.325 13.7134 127.389 13.7958C127.422 13.8374 127.446 13.8661 127.461 13.8827C127.467 13.8893 127.469 13.8919 127.469 13.8919L127.468 13.891C127.468 13.8903 127.46 13.8836 127.448 13.8755C127.443 13.8714 127.431 13.8636 127.414 13.8559C127.401 13.8499 127.363 13.8338 127.311 13.8338V14.0856C127.3 14.0856 127.222 13.9967 127.102 13.8338C126.526 13.0521 124.966 10.5668 124.966 8.03489C124.966 6.64014 125.439 5.21582 126.826 4.03759C126.926 3.95234 127.031 3.86837 127.141 3.78579H116.298C111.471 3.78579 106.134 5.89335 106.134 10.5844C106.134 17.4497 109.643 17.6175 113.309 17.7928C114.707 17.8596 116.128 17.9276 117.385 18.3687C119.901 19.2525 120.853 21.3261 120.853 23.5696C120.853 27.5468 117.929 32.1358 115.108 32.1358C113.85 32.1358 113.408 31.7959 113.408 31.354C113.408 30.4362 115.312 28.9745 115.312 28.9745C115.385 28.9015 115.458 28.8284 115.532 28.7553C116.929 27.3626 118.371 25.9255 118.371 24.1815C118.371 20.9182 113.85 20.2383 110.825 20.2383H106.134C106.134 20.2383 106.258 20.325 106.463 20.4901C107.405 21.2503 110.043 23.6737 110.043 26.9689C110.043 28.7008 109.32 30.6527 107.302 32.7338C107.22 32.8175 107.137 32.9015 107.052 32.9856H121.533C123.504 32.9856 125.306 32.2038 126.597 30.946C127.889 29.6883 128.671 27.9547 128.671 26.0171C128.671 22.6178 126.428 19.5924 123.13 18.5047C121.567 17.9608 119.731 17.3829 117.623 16.805C114.972 16.0572 113.952 14.0176 113.952 11.8081C113.952 8.4768 116.332 4.77158 119.255 4.77158C119.391 4.77158 119.561 4.77158 119.697 4.80558C120.445 4.90756 120.751 5.11151 120.751 5.41745C120.751 5.90605 119.908 6.60534 119.207 7.18725C118.932 7.41503 118.679 7.62482 118.507 7.79695C117.419 8.81673 117.012 9.9045 117.012 10.8563C117.012 12.6579 118.609 14.0856 120.343 14.0856H127.311V14.3374H120.343C118.484 14.3374 116.76 12.8103 116.76 10.8563C116.76 9.82811 117.202 8.67709 118.332 7.61598C118.495 7.45396 118.719 7.26483 118.955 7.06897C118.985 7.0439 119.016 7.01866 119.046 6.99327C119.26 6.81592 119.482 6.63123 119.691 6.44504C119.929 6.23144 120.139 6.02423 120.288 5.83458C120.445 5.63527 120.499 5.49766 120.499 5.41745C120.499 5.37114 120.486 5.31764 120.375 5.25094C120.249 5.1755 120.026 5.10461 119.663 5.05507L119.649 5.0532L119.636 5.04986C119.536 5.02486 119.399 5.02338 119.255 5.02338C117.905 5.02338 116.646 5.8815 115.712 7.18708C114.781 8.48934 114.204 10.1977 114.204 11.8081C114.204 12.8755 114.45 13.886 115.003 14.715C115.553 15.5404 116.419 16.2035 117.691 16.5625M123.211 18.2663C126.607 19.3874 128.923 22.5057 128.923 26.0171C128.923 28.0246 128.112 29.8227 126.773 31.1265C125.435 32.429 123.571 33.2374 121.533 33.2374H106.437" fill="#81C07F"/>
<path fill-rule="evenodd" clip-rule="evenodd" d="M82.9136 9.53514L82.9139 9.53262C83.3079 6.4528 85.958 4.91971 88.4786 4.15666C91.0128 3.38952 93.5237 3.36403 93.8375 3.36403H93.8714C100.302 3.36403 103.501 6.56945 104.01 9.17234C104.116 9.63617 104.151 10.0964 104.151 10.5164C104.151 11.9299 103.701 13.1498 103.266 14.3307L103.252 14.3682C102.808 15.5705 102.384 16.7372 102.384 18.0968C102.384 19.0737 102.611 20.1576 103.241 21.4526C103.666 22.3031 104.185 24.0065 104.185 25.8811C104.185 27.6404 103.714 29.5688 102.175 31.055C100.637 32.5398 98.0732 33.5433 93.9734 33.5433C89.6445 33.5433 86.9151 32.6375 85.2657 31.2401C83.608 29.8357 83.0819 27.9702 83.0819 26.1531C83.0819 24.4827 83.4987 22.8555 83.9456 21.5835C84.3787 20.3171 84.5096 19.3251 84.5096 18.5047C84.5096 17.2367 84.1463 16.3319 83.7446 15.3315C83.7224 15.2763 83.7001 15.2208 83.6778 15.1649C83.249 14.0929 82.8099 12.91 82.8099 11.1282C82.8099 10.6403 82.8448 10.1203 82.9136 9.53514ZM84.1835 21.666C83.7416 22.9237 83.3337 24.5214 83.3337 26.1531C83.3337 29.6883 85.3732 33.2915 93.9734 33.2915C102.098 33.2915 103.933 29.3144 103.933 25.8811C103.933 24.0455 103.423 22.3799 103.016 21.564C102.37 20.2383 102.132 19.1165 102.132 18.0968C102.132 16.6775 102.579 15.4646 103.024 14.2591C103.463 13.0683 103.899 11.8847 103.899 10.5164C103.899 10.1084 103.865 9.66654 103.763 9.22464C103.287 6.77715 100.228 3.61582 93.8714 3.61582H93.8375C93.2256 3.61582 83.9116 3.7178 83.1637 9.56456C83.0957 10.1424 83.0617 10.6523 83.0617 11.1282C83.0617 12.9564 83.5342 14.1325 83.981 15.2444C84.3815 16.2415 84.7614 17.1869 84.7614 18.5047C84.7614 19.3545 84.6254 20.3743 84.1835 21.666ZM97.355 9.81863C95.3822 13.1195 94.5035 15.444 94.5035 17.4849C94.5035 20.0962 95.9568 22.1702 98.1193 25.2112L98.1196 25.2116C98.772 26.125 99.0245 26.9923 99.0245 27.7847C99.0245 29.7235 97.4556 31.2789 96.1281 31.7982C95.4119 32.0582 94.5927 32.1899 93.7695 32.1899C92.7818 32.1899 91.8326 31.9922 91.0535 31.6352C89.7698 31.0427 88.2425 29.615 88.2425 27.7847C88.2425 26.9984 88.5249 26.0977 89.2474 25.1123C91.2371 22.4023 92.0837 20.1752 92.0837 18.0288C92.0837 15.3336 90.7183 12.7594 88.89 9.5091L88.8888 9.50698L88.8876 9.50488C88.5682 8.96189 88.4464 8.46166 88.4464 8.03489C88.4464 7.30706 88.7934 6.70549 89.2918 6.22298C89.7919 5.73895 90.431 5.38926 90.9711 5.17633C91.6509 4.91759 92.4689 4.78543 93.2936 4.78543C94.2466 4.78543 95.1923 4.9829 95.9673 5.3702C96.6907 5.74011 97.1274 6.19865 97.3857 6.66891C97.6453 7.14156 97.7328 7.64132 97.7328 8.10288C97.7328 8.58047 97.637 9.0136 97.54 9.32905C97.4916 9.4862 97.4434 9.61259 97.4077 9.6988C97.3899 9.74187 97.3753 9.7748 97.3654 9.7964C97.3609 9.80617 97.3574 9.81362 97.355 9.81863ZM96.081 5.1455C97.6107 5.92733 97.9846 7.11708 97.9846 8.10288C97.9846 9.12266 97.5767 9.93849 97.5767 9.93849C95.6051 13.2358 94.7553 15.5133 94.7553 17.4849C94.7553 20.0004 96.149 22.0059 98.3245 25.0653C99.0044 26.0171 99.2763 26.9349 99.2763 27.7847C99.2763 29.8583 97.6107 31.4899 96.217 32.0338C95.4691 32.3058 94.6193 32.4417 93.7695 32.4417C92.7497 32.4417 91.7639 32.2378 90.9481 31.8638C89.6223 31.252 87.9907 29.7563 87.9907 27.7847C87.9907 26.9349 88.2966 25.9831 89.0445 24.9633C91.0161 22.2779 91.8319 20.1023 91.8319 18.0288C91.8319 15.4113 90.5062 12.8959 88.6706 9.63255C88.3306 9.05467 88.1947 8.51079 88.1947 8.03489C88.1947 6.40323 89.7583 5.38345 90.8801 4.94154C91.5939 4.6696 92.4438 4.53363 93.2936 4.53363C94.2794 4.53363 95.2652 4.73759 96.081 5.1455Z" fill="#81C07F"/>
<path fill-rule="evenodd" clip-rule="evenodd" d="M77.0129 23.2977C78.3046 23.2977 79.4604 23.8415 80.3102 24.6914C81.16 25.5072 81.6699 26.6969 81.6699 27.9887V32.9856C81.6699 32.9856 81.5838 32.9318 81.4181 32.8489C80.8627 32.5708 79.4135 31.9658 77.3189 31.9658C76.503 31.9658 75.5512 32.0678 74.4975 32.3398C72.2539 32.9176 68.1408 32.9856 68.1408 32.9856H64.6055C64.6055 32.9856 64.6543 32.9025 64.7383 32.7338C65.2574 31.6911 67.121 27.3769 67.121 19.1845C67.121 17.8928 67.087 16.5331 66.985 15.0374C66.4995 8.26905 65.1503 4.93168 64.7313 4.03759C64.6516 3.86746 64.6055 3.78579 64.6055 3.78579H70.9962C73.0698 3.78579 75.0753 6.23328 75.0753 10.3804C75.0753 11.1622 75.0073 12.0121 74.8374 12.9299C74.5035 14.8662 73.5139 16.4965 72.0499 18.9084C71.2778 20.1803 70.3739 21.6695 69.3645 23.5356C68.8207 24.5214 67.189 27.5468 67.155 29.0424V29.3144C67.155 30.9121 67.7329 31.8639 68.6847 31.8639C69.1606 31.8639 69.7385 31.6259 70.3843 31.048C71.0302 30.4701 71.948 28.7365 72.05 28.4306C74.2255 23.4336 77.0129 23.2977 77.0129 23.2977ZM67.4068 29.0454V29.3144C67.4068 30.0883 67.5476 30.6746 67.7786 31.0584C68.0029 31.431 68.3088 31.6121 68.6847 31.6121C69.0763 31.6121 69.5968 31.4148 70.2164 30.8604C70.5072 30.6002 70.8809 30.0539 71.2046 29.5088C71.3634 29.2412 71.5055 28.9822 71.6136 28.7721C71.725 28.5557 71.7926 28.4064 71.8111 28.351L71.8146 28.3403L71.8191 28.3301C72.9227 25.7952 74.1915 24.4715 75.2057 23.782C75.712 23.4378 76.1514 23.2541 76.4694 23.1563C76.6282 23.1075 76.7565 23.0801 76.8473 23.0649C76.8927 23.0573 76.9288 23.0527 76.9546 23.05C76.9675 23.0486 76.9779 23.0477 76.9856 23.0471C76.9894 23.0469 76.9926 23.0466 76.9952 23.0465L76.9984 23.0463L76.9997 23.0462L77.0002 23.0462C77.0004 23.0462 77.0006 23.0462 77.0129 23.2977L77.0006 23.0462L77.0068 23.0459H77.0129C78.3768 23.0459 79.5942 23.6202 80.4865 24.5115C81.3867 25.3768 81.9217 26.6323 81.9217 27.9887V33.4399L81.5368 33.1993L81.5365 33.1992L81.5343 33.1978C81.5319 33.1964 81.5281 33.194 81.5227 33.1908C81.5118 33.1844 81.4948 33.1745 81.4717 33.1616C81.4256 33.1359 81.3553 33.0982 81.2619 33.0525C81.075 32.9611 80.7959 32.8378 80.4329 32.7141C79.7071 32.4666 78.6469 32.2176 77.3189 32.2176C76.524 32.2176 75.5933 32.317 74.5604 32.5836C73.4142 32.8788 71.8047 33.0413 70.4949 33.1306C69.8373 33.1754 69.2503 33.2021 68.8277 33.2176C68.6164 33.2253 68.446 33.2303 68.3283 33.2333C68.2695 33.2348 68.2238 33.2358 68.1928 33.2365L68.1574 33.2372L68.1482 33.2373L68.1458 33.2374L68.1452 33.2374C68.1452 33.2374 68.145 33.2374 68.1408 32.9856L68.1452 33.2374L68.1429 33.2374H64.1656L64.3883 32.8583L64.3893 32.8566L64.3937 32.8488C64.3978 32.8416 64.4043 32.8301 64.4129 32.8144C64.43 32.783 64.4558 32.7346 64.489 32.6691C64.5554 32.5382 64.6514 32.3386 64.7671 32.0685C64.9986 31.5283 65.3093 30.7061 65.6207 29.5868C66.2434 27.3486 66.8692 23.921 66.8692 19.1845C66.8692 17.8976 66.8354 16.5439 66.7339 15.0551C66.4461 11.0435 65.8541 8.24816 65.3367 6.46049C65.078 5.56661 64.8379 4.92451 64.6638 4.5081C64.5767 4.29988 64.5061 4.14807 64.4579 4.04939C64.4337 4.00005 64.4152 3.96399 64.403 3.94081C64.3969 3.92922 64.3924 3.92084 64.3896 3.91563L64.3866 3.91019L64.3862 3.90946L64.3861 3.90924L64.1745 3.53399H70.9962C72.1387 3.53399 73.2286 4.20792 74.0222 5.38735C74.8166 6.5678 75.3271 8.2683 75.3271 10.3804C75.3271 11.1765 75.2579 12.0412 75.0853 12.9741C74.8221 14.4987 74.1654 15.8308 73.2234 17.442C72.9295 17.9448 72.6081 18.4742 72.2609 19.0461C71.4902 20.3158 70.5924 21.7948 69.586 23.6554L69.585 23.6573C69.3139 24.1486 68.774 25.1442 68.2982 26.2012C68.0602 26.7298 67.8399 27.27 67.6775 27.7678C67.5142 28.268 67.4149 28.7088 67.4068 29.0454Z" fill="#81C07F"/>
<path fill-rule="evenodd" clip-rule="evenodd" d="M63.8309 25.4956V25.5752C63.8309 25.6648 63.8384 25.7565 63.847 25.8551L63.8484 25.8718C63.8563 25.9614 63.8649 26.0605 63.8649 26.1531C63.8649 30.0678 60.6564 33.2374 56.7126 33.2374H40.3188L40.598 32.8408L40.5982 32.8404L40.5996 32.8384L40.6058 32.8295C40.6114 32.8214 40.6199 32.8088 40.6312 32.792C40.6539 32.7584 40.6875 32.7075 40.7306 32.6402C40.8168 32.5055 40.9407 32.3048 41.0898 32.0434C41.3881 31.5206 41.7869 30.7557 42.1859 29.7917C42.9844 27.8628 43.7815 25.1426 43.7815 21.9719C43.7815 21.0327 43.7144 20.0948 43.5469 19.09L43.5464 19.0871L43.546 19.0842C43.5319 18.9852 43.4779 18.7724 43.3853 18.4427C43.3178 18.2023 43.2329 17.9102 43.1346 17.572C43.1009 17.4557 43.0655 17.334 43.0287 17.2071C42.7416 16.2168 42.3709 14.9183 42.0044 13.4542C41.2723 10.5301 40.5521 6.928 40.5521 3.78579V3.53399H54.537C58.315 3.53399 61.3154 6.80977 61.3154 10.1085C61.3154 11.2521 60.9569 12.3608 60.1739 13.3574L60.1734 13.358C58.9521 14.9026 57.1633 15.3912 55.3868 15.3912C53.8712 15.3912 52.3452 15.0352 51.1236 14.5958C51.7665 15.097 52.2724 15.4361 52.7457 15.7069C53.3063 16.0277 53.8204 16.2531 54.4741 16.5398C54.7309 16.6524 55.0093 16.7745 55.3205 16.9155C57.9793 18.1162 60.0386 19.5784 61.4668 21.0758C62.8913 22.5694 63.7038 24.1156 63.8299 25.4841L63.8309 25.4956ZM55.2169 17.145C54.9135 17.0075 54.6391 16.8872 54.384 16.7753C52.9948 16.1661 52.1757 15.807 50.3332 14.2828C50.0881 14.0802 49.825 13.8569 49.5401 13.6097C49.7984 13.7573 50.1112 13.9129 50.4663 14.0661C51.7467 14.6185 53.5772 15.1394 55.3868 15.1394C57.1205 15.1394 58.8201 14.6635 59.9759 13.2018C60.7237 12.25 61.0637 11.1962 61.0637 10.1085C61.0637 6.94712 58.1743 3.78579 54.537 3.78579H40.8039C40.8039 3.8694 40.8045 3.95334 40.8055 4.03759C40.8637 8.85539 42.5639 14.7058 43.3761 17.5007C43.6067 18.2939 43.7656 18.841 43.7953 19.0486C43.9653 20.0683 44.0333 21.0201 44.0333 21.9719C44.0333 27.5156 41.6289 31.6925 40.9695 32.7338C40.8647 32.8993 40.8039 32.9856 40.8039 32.9856H56.7126C60.5198 32.9856 63.6131 29.9263 63.6131 26.1531C63.6131 26.0719 63.6054 25.9831 63.5973 25.8902C63.5884 25.7884 63.5791 25.6818 63.5791 25.5752V25.5072C63.3412 22.9237 60.4858 19.5245 55.2169 17.145ZM48.5892 11.5968L48.5899 11.5972C49.3481 12.0917 50.15 12.4061 50.9338 12.4061C51.2412 12.4061 51.586 12.3444 51.9355 12.2173L51.9369 12.2168C53.2641 11.7428 54.0147 10.6812 54.0473 9.28974V9.19065C54.0473 6.74295 51.8473 5.05738 49.6081 5.05738H44.565C44.9635 6.55019 45.9043 9.85768 48.5892 11.5968ZM44.3043 5.05738C44.2996 5.03972 44.295 5.02235 44.2905 5.0053C44.2713 4.9331 44.2536 4.86636 44.2372 4.80558H49.6081C51.9536 4.80558 54.2991 6.5732 54.2991 9.19065V9.29263C54.2651 10.7883 53.4493 11.9441 52.0216 12.454C51.6476 12.5899 51.2737 12.6579 50.9338 12.6579C50.084 12.6579 49.2342 12.318 48.4523 11.8081C45.6397 9.98627 44.6903 6.51158 44.3043 5.05738ZM52.8246 30.6412C54.5587 29.7533 56.1888 28.2903 56.1888 25.9151C56.1888 23.3802 54.4878 20.7647 52.61 18.6284C51.2251 17.0528 49.7983 15.7923 48.9306 15.0258C48.6192 14.7507 48.3799 14.5392 48.2403 14.3996C47.4863 13.6456 46.3024 12.3677 45.254 10.8553C44.7307 10.1004 44.2368 9.28079 43.8474 8.43385C44.4979 11.8484 46.2666 16.1881 48.8263 19.7508C50.6571 22.2726 51.4575 24.9752 51.4575 27.3088C51.4575 29.0674 50.9861 30.6206 50.0954 31.637C50.7963 31.466 51.8169 31.1571 52.8246 30.6412ZM49.7667 31.9703C51.443 31.6152 56.4406 30.186 56.4406 25.9151C56.4406 21.324 51.0981 16.6039 49.0713 14.8133C48.7721 14.5489 48.5451 14.3484 48.4183 14.2216C47.1446 12.9479 44.6383 10.1703 43.6705 7.31663C43.5019 6.81934 43.3799 6.31973 43.3194 5.82536C43.3194 6.30392 43.3548 6.82265 43.4239 7.37319C43.8749 10.9679 45.7629 15.9188 48.6223 19.8984C50.4239 22.3799 51.2057 25.0313 51.2057 27.3088C51.2057 29.2034 50.647 30.8053 49.6473 31.738C49.517 31.8596 49.3792 31.9698 49.2342 32.0678C49.2752 32.0627 49.4684 32.0335 49.7667 31.9703Z" fill="#81C07F"/>
<path d="M17.9413 15.4805L25.4626 9.26752L19.4533 17.0437L28.9786 17.3925C29.8816 16.8218 30.6376 16.2461 31.1809 15.6844C34.3286 12.43 34.3286 7.15355 31.1809 3.89914C28.0332 0.644732 22.9297 0.644732 19.782 3.89914C19.085 4.61979 18.3599 5.71026 17.6513 7.02662L17.9413 15.4795V15.4805Z" fill="#F9A7EA"/>
<path d="M6.02143 17.3937L15.5467 17.0448L9.53749 9.26862L17.0587 15.4816L17.3488 7.02873C16.6401 5.71337 15.9151 4.6219 15.218 3.90125C12.0703 0.646843 6.96688 0.646843 3.81916 3.90125C0.671445 7.15566 0.671445 12.4321 3.81916 15.6865C4.36247 16.2482 5.11849 16.8239 6.02143 17.3947V17.3937Z" fill="#F9A7EA"/>
<path d="M17.0597 19.5194L9.53842 25.7324L15.5477 17.9562L6.02236 17.6074C5.11942 18.1781 4.36345 18.7538 3.82014 19.3155C0.672424 22.5699 0.672424 27.8464 3.82014 31.1008C6.96786 34.3552 12.0713 34.3552 15.219 31.1008C15.916 30.3801 16.6411 29.2897 17.3497 27.9743L17.0597 19.5214V19.5194Z" fill="#F9A7EA"/>
<path d="M28.9786 17.6064L19.4533 17.9552L25.4626 25.7314L17.9413 19.5185L17.6513 27.9713C18.3599 29.2867 19.085 30.3782 19.782 31.0988C22.9297 34.3532 28.0332 34.3532 31.1809 31.0988C34.3286 27.8444 34.3286 22.568 31.1809 19.3136C30.6376 18.7518 29.8816 18.1761 28.9786 17.6054V17.6064Z" fill="#F9A7EA"/>
</svg>
